{
	"patcher" : 	{
		"fileversion" : 1,
		"appversion" : 		{
			"major" : 8,
			"minor" : 1,
			"revision" : 8,
			"architecture" : "x64",
			"modernui" : 1
		}
,
		"classnamespace" : "box",
		"rect" : [ 41.0, 84.0, 1112.0, 699.0 ],
		"bglocked" : 0,
		"openinpresentation" : 1,
		"default_fontsize" : 11.0,
		"default_fontface" : 1,
		"default_fontname" : "Consolas",
		"gridonopen" : 1,
		"gridsize" : [ 15.0, 15.0 ],
		"gridsnaponopen" : 1,
		"objectsnaponopen" : 1,
		"statusbarvisible" : 2,
		"toolbarvisible" : 1,
		"lefttoolbarpinned" : 0,
		"toptoolbarpinned" : 0,
		"righttoolbarpinned" : 0,
		"bottomtoolbarpinned" : 0,
		"toolbars_unpinned_last_save" : 0,
		"tallnewobj" : 0,
		"boxanimatetime" : 200,
		"enablehscroll" : 1,
		"enablevscroll" : 1,
		"devicewidth" : 0.0,
		"description" : "",
		"digest" : "",
		"tags" : "",
		"style" : "",
		"subpatcher_template" : "Untitled1_template",
		"assistshowspatchername" : 0,
		"boxes" : [ 			{
				"box" : 				{
					"id" : "obj-16",
					"maxclass" : "newobj",
					"numinlets" : 1,
					"numoutlets" : 1,
					"outlettype" : [ "bang" ],
					"patching_rect" : [ 997.0, 573.0, 27.0, 21.0 ],
					"text" : "t b"
				}

			}
, 			{
				"box" : 				{
					"id" : "obj-1",
					"maxclass" : "meter~",
					"numinlets" : 1,
					"numoutlets" : 1,
					"outlettype" : [ "float" ],
					"patching_rect" : [ 723.533333333333303, 205.0, 80.0, 13.0 ],
					"presentation" : 1,
					"presentation_rect" : [ 333.022899224857497, 155.300285696983337, 109.204201550285006, 17.161290168762207 ]
				}

			}
, 			{
				"box" : 				{
					"id" : "obj-15",
					"items" : [ "off", ",", "one", ",", "two", ",", "three", ",", "four", ",", "five", ",", "six", ",", "seven", ",", "eight", ",", "nine", ",", "ten" ],
					"maxclass" : "umenu",
					"numinlets" : 1,
					"numoutlets" : 3,
					"outlettype" : [ "int", "", "" ],
					"parameter_enable" : 0,
					"patching_rect" : [ 703.533333333333303, 111.490298628807068, 100.0, 21.0 ],
					"presentation" : 1,
					"presentation_rect" : [ 239.125, 11.193080544471741, 100.0, 21.0 ],
					"varname" : "umenu[3]"
				}

			}
, 			{
				"box" : 				{
					"id" : "obj-9",
					"maxclass" : "newobj",
					"numinlets" : 1,
					"numoutlets" : 1,
					"outlettype" : [ "signal" ],
					"patcher" : 					{
						"fileversion" : 1,
						"appversion" : 						{
							"major" : 8,
							"minor" : 1,
							"revision" : 8,
							"architecture" : "x64",
							"modernui" : 1
						}
,
						"classnamespace" : "box",
						"rect" : [ 41.0, 84.0, 1003.0, 713.0 ],
						"bglocked" : 0,
						"openinpresentation" : 0,
						"default_fontsize" : 11.0,
						"default_fontface" : 1,
						"default_fontname" : "Consolas",
						"gridonopen" : 1,
						"gridsize" : [ 15.0, 15.0 ],
						"gridsnaponopen" : 1,
						"objectsnaponopen" : 1,
						"statusbarvisible" : 2,
						"toolbarvisible" : 1,
						"lefttoolbarpinned" : 0,
						"toptoolbarpinned" : 0,
						"righttoolbarpinned" : 0,
						"bottomtoolbarpinned" : 0,
						"toolbars_unpinned_last_save" : 0,
						"tallnewobj" : 0,
						"boxanimatetime" : 200,
						"enablehscroll" : 1,
						"enablevscroll" : 1,
						"devicewidth" : 0.0,
						"description" : "",
						"digest" : "",
						"tags" : "",
						"style" : "",
						"subpatcher_template" : "Untitled1_template",
						"assistshowspatchername" : 0,
						"boxes" : [ 							{
								"box" : 								{
									"id" : "obj-2",
									"maxclass" : "newobj",
									"numinlets" : 11,
									"numoutlets" : 1,
									"outlettype" : [ "signal" ],
									"patching_rect" : [ 63.475218534469604, 143.0, 172.533333333333331, 21.0 ],
									"text" : "selector~ 10"
								}

							}
, 							{
								"box" : 								{
									"id" : "obj-1",
									"maxclass" : "newobj",
									"numinlets" : 1,
									"numoutlets" : 10,
									"outlettype" : [ "signal", "signal", "signal", "signal", "signal", "signal", "signal", "signal", "signal", "signal" ],
									"patching_rect" : [ 77.261885201136266, 100.0, 160.0, 21.0 ],
									"text" : "adc~ 1 2 3 4 5 6 7 8 9 10"
								}

							}
, 							{
								"box" : 								{
									"comment" : "",
									"id" : "obj-76",
									"index" : 1,
									"maxclass" : "inlet",
									"numinlets" : 0,
									"numoutlets" : 1,
									"outlettype" : [ "int" ],
									"patching_rect" : [ 63.475218534469604, 40.0, 30.0, 30.0 ]
								}

							}
, 							{
								"box" : 								{
									"comment" : "",
									"id" : "obj-79",
									"index" : 1,
									"maxclass" : "outlet",
									"numinlets" : 1,
									"numoutlets" : 0,
									"patching_rect" : [ 63.475218534469604, 629.451476999999954, 30.0, 30.0 ]
								}

							}
 ],
						"lines" : [ 							{
								"patchline" : 								{
									"destination" : [ "obj-2", 10 ],
									"midpoints" : [ 227.761885201136266, 122.0, 226.508551867802936, 122.0 ],
									"source" : [ "obj-1", 9 ]
								}

							}
, 							{
								"patchline" : 								{
									"destination" : [ "obj-2", 9 ],
									"midpoints" : [ 212.095218534469581, 122.0, 211.155218534469611, 122.0 ],
									"source" : [ "obj-1", 8 ]
								}

							}
, 							{
								"patchline" : 								{
									"destination" : [ "obj-2", 8 ],
									"midpoints" : [ 196.428551867802923, 122.0, 195.801885201136258, 122.0 ],
									"source" : [ "obj-1", 7 ]
								}

							}
, 							{
								"patchline" : 								{
									"destination" : [ "obj-2", 7 ],
									"midpoints" : [ 180.761885201136266, 122.0, 180.448551867802934, 122.0 ],
									"source" : [ "obj-1", 6 ]
								}

							}
, 							{
								"patchline" : 								{
									"destination" : [ "obj-2", 6 ],
									"midpoints" : [ 165.095218534469609, 122.0, 165.095218534469609, 122.0 ],
									"source" : [ "obj-1", 5 ]
								}

							}
, 							{
								"patchline" : 								{
									"destination" : [ "obj-2", 5 ],
									"midpoints" : [ 149.428551867802923, 122.0, 149.741885201136256, 122.0 ],
									"source" : [ "obj-1", 4 ]
								}

							}
, 							{
								"patchline" : 								{
									"destination" : [ "obj-2", 4 ],
									"midpoints" : [ 133.761885201136266, 122.0, 134.388551867802931, 122.0 ],
									"source" : [ "obj-1", 3 ]
								}

							}
, 							{
								"patchline" : 								{
									"destination" : [ "obj-2", 3 ],
									"midpoints" : [ 118.095218534469595, 122.0, 119.035218534469607, 122.0 ],
									"source" : [ "obj-1", 2 ]
								}

							}
, 							{
								"patchline" : 								{
									"destination" : [ "obj-2", 2 ],
									"midpoints" : [ 102.428551867802923, 125.0, 103.681885201136268, 125.0 ],
									"source" : [ "obj-1", 1 ]
								}

							}
, 							{
								"patchline" : 								{
									"destination" : [ "obj-2", 1 ],
									"midpoints" : [ 86.761885201136266, 125.0, 88.328551867802929, 125.0 ],
									"source" : [ "obj-1", 0 ]
								}

							}
, 							{
								"patchline" : 								{
									"destination" : [ "obj-79", 0 ],
									"source" : [ "obj-2", 0 ]
								}

							}
, 							{
								"patchline" : 								{
									"destination" : [ "obj-2", 0 ],
									"source" : [ "obj-76", 0 ]
								}

							}
 ],
						"elementcolor" : [ 0.556862745098039, 0.556862745098039, 0.556862745098039, 1.0 ],
						"accentcolor" : [ 0.937254901960784, 0.729411764705882, 0.980392156862745, 1.0 ],
						"textcolor" : [ 1.0, 1.0, 1.0, 1.0 ],
						"patchlinecolor" : [ 0.43921568627451, 0.949019607843137, 1.0, 1.0 ],
						"bgcolor" : [ 0.368627450980392, 0.368627450980392, 0.368627450980392, 1.0 ],
						"editing_bgcolor" : [ 0.443137254901961, 0.443137254901961, 0.443137254901961, 1.0 ]
					}
,
					"patching_rect" : [ 669.0, 156.0, 51.0, 21.0 ],
					"saved_object_attributes" : 					{
						"accentcolor" : [ 0.937254901960784, 0.729411764705882, 0.980392156862745, 1.0 ],
						"description" : "",
						"digest" : "",
						"editing_bgcolor" : [ 0.443137254901961, 0.443137254901961, 0.443137254901961, 1.0 ],
						"elementcolor" : [ 0.556862745098039, 0.556862745098039, 0.556862745098039, 1.0 ],
						"fontface" : 1,
						"fontname" : "Consolas",
						"fontsize" : 11.0,
						"globalpatchername" : "",
						"locked_bgcolor" : [ 0.368627450980392, 0.368627450980392, 0.368627450980392, 1.0 ],
						"patchlinecolor" : [ 0.43921568627451, 0.949019607843137, 1.0, 1.0 ],
						"tags" : "",
						"textcolor" : [ 1.0, 1.0, 1.0, 1.0 ]
					}
,
					"text" : "p input"
				}

			}
, 			{
				"box" : 				{
					"id" : "obj-8",
					"maxclass" : "newobj",
					"numinlets" : 1,
					"numoutlets" : 1,
					"outlettype" : [ "" ],
					"patching_rect" : [ 901.0, 678.0, 57.0, 21.0 ],
					"text" : "deferlow"
				}

			}
, 			{
				"box" : 				{
					"id" : "obj-2",
					"linecount" : 2,
					"maxclass" : "message",
					"numinlets" : 2,
					"numoutlets" : 1,
					"outlettype" : [ "" ],
					"patching_rect" : [ 171.524781465530396, 310.0, 50.0, 34.0 ],
					"presentation" : 1,
					"presentation_rect" : [ 30.524781465530396, 129.0, 100.0, 21.0 ],
					"text" : "-29.721101"
				}

			}
, 			{
				"box" : 				{
					"id" : "obj-96",
					"maxclass" : "comment",
					"numinlets" : 1,
					"numoutlets" : 0,
					"patching_rect" : [ 83.805235088864947, 198.01088011264801, 51.952399164438248, 19.0 ],
					"presentation" : 1,
					"presentation_rect" : [ 83.805235088864947, 197.0, 51.952399164438248, 19.0 ],
					"text" : "thresh"
				}

			}
, 			{
				"box" : 				{
					"id" : "obj-95",
					"linecount" : 2,
					"maxclass" : "comment",
					"numinlets" : 1,
					"numoutlets" : 0,
					"patching_rect" : [ 378.553432703018188, 25.590339303016663, 51.952399164438248, 32.0 ],
					"presentation" : 1,
					"presentation_rect" : [ 132.553432703018188, 171.193080544471741, 82.952399164438248, 19.0 ],
					"text" : "inputNumber"
				}

			}
, 			{
				"box" : 				{
					"id" : "obj-94",
					"linecount" : 2,
					"maxclass" : "comment",
					"numinlets" : 1,
					"numoutlets" : 0,
					"patching_rect" : [ 440.805235088864947, 30.0, 57.0, 32.0 ],
					"presentation" : 1,
					"presentation_rect" : [ 87.805235088864947, 259.0, 86.0, 19.0 ],
					"text" : "presetNumber"
				}

			}
, 			{
				"box" : 				{
					"format" : 6,
					"id" : "obj-93",
					"maxclass" : "flonum",
					"numinlets" : 1,
					"numoutlets" : 2,
					"outlettype" : [ "", "bang" ],
					"parameter_enable" : 0,
					"patching_rect" : [ 308.256848395864154, 146.0, 50.0, 21.0 ],
					"presentation" : 1,
					"presentation_rect" : [ 30.533333333333303, 197.0, 50.0, 21.0 ],
					"varname" : "number[2]"
				}

			}
, 			{
				"box" : 				{
					"id" : "obj-92",
					"maxclass" : "number",
					"numinlets" : 1,
					"numoutlets" : 2,
					"outlettype" : [ "", "bang" ],
					"parameter_enable" : 0,
					"patching_rect" : [ 391.524781465530396, 136.0, 50.0, 21.0 ],
					"presentation" : 1,
					"presentation_rect" : [ 30.524781465530396, 259.0, 50.0, 21.0 ]
				}

			}
, 			{
				"box" : 				{
					"id" : "obj-91",
					"maxclass" : "button",
					"numinlets" : 1,
					"numoutlets" : 1,
					"outlettype" : [ "bang" ],
					"parameter_enable" : 0,
					"patching_rect" : [ 364.0, 239.699714303016663, 24.0, 24.0 ],
					"presentation" : 1,
					"presentation_rect" : [ 146.529632285237312, 226.280359387397766, 24.0, 24.0 ]
				}

			}
, 			{
				"box" : 				{
					"id" : "obj-90",
					"maxclass" : "meter~",
					"numinlets" : 1,
					"numoutlets" : 1,
					"outlettype" : [ "float" ],
					"patching_rect" : [ 301.524781000000075, 178.699714303016663, 80.0, 13.0 ],
					"presentation" : 1,
					"presentation_rect" : [ 30.533333333333303, 229.699714303016663, 109.204201550285006, 17.161290168762207 ]
				}

			}
, 			{
				"box" : 				{
					"id" : "obj-89",
					"items" : [ "off", ",", "one", ",", "two", ",", "three", ",", "four", ",", "five", ",", "six", ",", "seven", ",", "eight", ",", "nine", ",", "ten" ],
					"maxclass" : "umenu",
					"numinlets" : 1,
					"numoutlets" : 3,
					"outlettype" : [ "int", "", "" ],
					"parameter_enable" : 0,
					"patching_rect" : [ 208.533333333333303, 29.902757406234741, 100.0, 21.0 ],
					"presentation" : 1,
					"presentation_rect" : [ 30.524781465530396, 171.193080544471741, 100.0, 21.0 ],
					"varname" : "umenu[1]"
				}

			}
, 			{
				"box" : 				{
					"id" : "obj-88",
					"maxclass" : "newobj",
					"numinlets" : 3,
					"numoutlets" : 5,
					"outlettype" : [ "signal", "bang", "bang", "float", "int" ],
					"patcher" : 					{
						"fileversion" : 1,
						"appversion" : 						{
							"major" : 8,
							"minor" : 1,
							"revision" : 8,
							"architecture" : "x64",
							"modernui" : 1
						}
,
						"classnamespace" : "box",
						"rect" : [ 34.0, 77.0, 1003.0, 713.0 ],
						"bglocked" : 0,
						"openinpresentation" : 0,
						"default_fontsize" : 11.0,
						"default_fontface" : 1,
						"default_fontname" : "Consolas",
						"gridonopen" : 1,
						"gridsize" : [ 15.0, 15.0 ],
						"gridsnaponopen" : 1,
						"objectsnaponopen" : 1,
						"statusbarvisible" : 2,
						"toolbarvisible" : 1,
						"lefttoolbarpinned" : 0,
						"toptoolbarpinned" : 0,
						"righttoolbarpinned" : 0,
						"bottomtoolbarpinned" : 0,
						"toolbars_unpinned_last_save" : 0,
						"tallnewobj" : 0,
						"boxanimatetime" : 200,
						"enablehscroll" : 1,
						"enablevscroll" : 1,
						"devicewidth" : 0.0,
						"description" : "",
						"digest" : "",
						"tags" : "",
						"style" : "",
						"subpatcher_template" : "Untitled1_template",
						"assistshowspatchername" : 0,
						"boxes" : [ 							{
								"box" : 								{
									"id" : "obj-22",
									"maxclass" : "newobj",
									"numinlets" : 2,
									"numoutlets" : 1,
									"outlettype" : [ "int" ],
									"patching_rect" : [ 291.475218534469604, 548.45147693157196, 29.5, 21.0 ],
									"text" : "int"
								}

							}
, 							{
								"box" : 								{
									"id" : "obj-9",
									"maxclass" : "newobj",
									"numinlets" : 2,
									"numoutlets" : 1,
									"outlettype" : [ "float" ],
									"patching_rect" : [ 127.0, 507.14252270600889, 39.0, 21.0 ],
									"text" : "float"
								}

							}
, 							{
								"box" : 								{
									"id" : "obj-8",
									"maxclass" : "newobj",
									"numinlets" : 1,
									"numoutlets" : 2,
									"outlettype" : [ "bang", "bang" ],
									"patching_rect" : [ 81.0, 507.14252270600889, 39.0, 21.0 ],
									"text" : "t b b"
								}

							}
, 							{
								"box" : 								{
									"id" : "obj-20",
									"maxclass" : "newobj",
									"numinlets" : 2,
									"numoutlets" : 3,
									"outlettype" : [ "", "bang", "float" ],
									"patcher" : 									{
										"fileversion" : 1,
										"appversion" : 										{
											"major" : 8,
											"minor" : 1,
											"revision" : 8,
											"architecture" : "x64",
											"modernui" : 1
										}
,
										"classnamespace" : "box",
										"rect" : [ 463.0, 192.0, 334.0, 480.0 ],
										"bglocked" : 0,
										"openinpresentation" : 0,
										"default_fontsize" : 12.0,
										"default_fontface" : 0,
										"default_fontname" : "Arial",
										"gridonopen" : 1,
										"gridsize" : [ 15.0, 15.0 ],
										"gridsnaponopen" : 1,
										"objectsnaponopen" : 1,
										"statusbarvisible" : 2,
										"toolbarvisible" : 1,
										"lefttoolbarpinned" : 0,
										"toptoolbarpinned" : 0,
										"righttoolbarpinned" : 0,
										"bottomtoolbarpinned" : 0,
										"toolbars_unpinned_last_save" : 0,
										"tallnewobj" : 0,
										"boxanimatetime" : 200,
										"enablehscroll" : 1,
										"enablevscroll" : 1,
										"devicewidth" : 0.0,
										"description" : "",
										"digest" : "",
										"tags" : "",
										"style" : "",
										"subpatcher_template" : "",
										"assistshowspatchername" : 0,
										"boxes" : [ 											{
												"box" : 												{
													"id" : "obj-5",
													"maxclass" : "newobj",
													"numinlets" : 2,
													"numoutlets" : 1,
													"outlettype" : [ "signal" ],
													"patching_rect" : [ 237.0, 395.0, 58.0, 22.0 ],
													"text" : "onepole~"
												}

											}
, 											{
												"box" : 												{
													"comment" : "",
													"id" : "obj-4",
													"index" : 3,
													"maxclass" : "outlet",
													"numinlets" : 1,
													"numoutlets" : 0,
													"patching_rect" : [ 82.0, 281.0, 30.0, 30.0 ]
												}

											}
, 											{
												"box" : 												{
													"id" : "obj-9",
													"maxclass" : "newobj",
													"numinlets" : 1,
													"numoutlets" : 1,
													"outlettype" : [ "" ],
													"patching_rect" : [ 11.02409291267395, 234.0, 39.0, 22.0 ],
													"text" : "atodb"
												}

											}
, 											{
												"box" : 												{
													"comment" : "",
													"id" : "obj-3",
													"index" : 2,
													"maxclass" : "outlet",
													"numinlets" : 1,
													"numoutlets" : 0,
													"patching_rect" : [ 46.0, 281.0, 30.0, 30.0 ]
												}

											}
, 											{
												"box" : 												{
													"comment" : "",
													"id" : "obj-1",
													"index" : 2,
													"maxclass" : "inlet",
													"numinlets" : 0,
													"numoutlets" : 1,
													"outlettype" : [ "" ],
													"patching_rect" : [ 132.0, 65.0, 30.0, 30.0 ]
												}

											}
, 											{
												"box" : 												{
													"id" : "obj-138",
													"maxclass" : "newobj",
													"numinlets" : 2,
													"numoutlets" : 2,
													"outlettype" : [ "bang", "" ],
													"patching_rect" : [ 106.0, 209.0, 50.0, 22.0 ],
													"text" : "select 1"
												}

											}
, 											{
												"box" : 												{
													"id" : "obj-131",
													"maxclass" : "newobj",
													"numinlets" : 2,
													"numoutlets" : 1,
													"outlettype" : [ "int" ],
													"patching_rect" : [ 106.0, 179.0, 40.0, 22.0 ],
													"text" : "> -60."
												}

											}
, 											{
												"box" : 												{
													"id" : "obj-130",
													"maxclass" : "newobj",
													"numinlets" : 2,
													"numoutlets" : 1,
													"outlettype" : [ "float" ],
													"patching_rect" : [ 11.02409291267395, 179.0, 81.0, 22.0 ],
													"text" : "snapshot~ 80"
												}

											}
, 											{
												"box" : 												{
													"id" : "obj-122",
													"maxclass" : "newobj",
													"numinlets" : 1,
													"numoutlets" : 1,
													"outlettype" : [ "signal" ],
													"patching_rect" : [ 11.02409291267395, 149.228524506092072, 106.0, 22.0 ],
													"text" : "average~ 256 rms"
												}

											}
, 											{
												"box" : 												{
													"comment" : "",
													"id" : "obj-2",
													"index" : 1,
													"maxclass" : "inlet",
													"numinlets" : 0,
													"numoutlets" : 1,
													"outlettype" : [ "signal" ],
													"patching_rect" : [ 11.02409291267395, 65.0, 30.0, 30.0 ]
												}

											}
, 											{
												"box" : 												{
													"comment" : "",
													"id" : "obj-22",
													"index" : 1,
													"maxclass" : "outlet",
													"numinlets" : 1,
													"numoutlets" : 0,
													"patching_rect" : [ 11.02409291267395, 281.0, 30.0, 30.0 ]
												}

											}
 ],
										"lines" : [ 											{
												"patchline" : 												{
													"destination" : [ "obj-131", 1 ],
													"source" : [ "obj-1", 0 ]
												}

											}
, 											{
												"patchline" : 												{
													"destination" : [ "obj-130", 0 ],
													"source" : [ "obj-122", 0 ]
												}

											}
, 											{
												"patchline" : 												{
													"destination" : [ "obj-4", 0 ],
													"midpoints" : [ 20.52409291267395, 219.0, 93.0, 219.0, 93.0, 267.0, 91.5, 267.0 ],
													"order" : 0,
													"source" : [ "obj-130", 0 ]
												}

											}
, 											{
												"patchline" : 												{
													"destination" : [ "obj-9", 0 ],
													"order" : 1,
													"source" : [ "obj-130", 0 ]
												}

											}
, 											{
												"patchline" : 												{
													"destination" : [ "obj-138", 0 ],
													"source" : [ "obj-131", 0 ]
												}

											}
, 											{
												"patchline" : 												{
													"destination" : [ "obj-3", 0 ],
													"midpoints" : [ 115.5, 267.0, 55.5, 267.0 ],
													"source" : [ "obj-138", 0 ]
												}

											}
, 											{
												"patchline" : 												{
													"destination" : [ "obj-122", 0 ],
													"source" : [ "obj-2", 0 ]
												}

											}
, 											{
												"patchline" : 												{
													"destination" : [ "obj-131", 0 ],
													"midpoints" : [ 20.52409291267395, 267.0, 93.0, 267.0, 93.0, 174.0, 115.5, 174.0 ],
													"order" : 0,
													"source" : [ "obj-9", 0 ]
												}

											}
, 											{
												"patchline" : 												{
													"destination" : [ "obj-22", 0 ],
													"order" : 1,
													"source" : [ "obj-9", 0 ]
												}

											}
 ]
									}
,
									"patching_rect" : [ 50.0, 445.283231139183044, 75.0, 21.0 ],
									"saved_object_attributes" : 									{
										"description" : "",
										"digest" : "",
										"globalpatchername" : "",
										"tags" : ""
									}
,
									"text" : "p sigToTrig"
								}

							}
, 							{
								"box" : 								{
									"id" : "obj-2",
									"maxclass" : "newobj",
									"numinlets" : 11,
									"numoutlets" : 1,
									"outlettype" : [ "signal" ],
									"patching_rect" : [ 63.475218534469604, 143.0, 172.533333333333331, 21.0 ],
									"text" : "selector~ 10"
								}

							}
, 							{
								"box" : 								{
									"id" : "obj-1",
									"maxclass" : "newobj",
									"numinlets" : 1,
									"numoutlets" : 10,
									"outlettype" : [ "signal", "signal", "signal", "signal", "signal", "signal", "signal", "signal", "signal", "signal" ],
									"patching_rect" : [ 77.261885201136266, 100.0, 160.0, 21.0 ],
									"text" : "adc~ 1 2 3 4 5 6 7 8 9 10"
								}

							}
, 							{
								"box" : 								{
									"comment" : "",
									"id" : "obj-76",
									"index" : 1,
									"maxclass" : "inlet",
									"numinlets" : 0,
									"numoutlets" : 1,
									"outlettype" : [ "int" ],
									"patching_rect" : [ 63.475218534469604, 40.0, 30.0, 30.0 ]
								}

							}
, 							{
								"box" : 								{
									"comment" : "",
									"id" : "obj-77",
									"index" : 2,
									"maxclass" : "inlet",
									"numinlets" : 0,
									"numoutlets" : 1,
									"outlettype" : [ "" ],
									"patching_rect" : [ 105.999998534469597, 40.0, 30.0, 30.0 ]
								}

							}
, 							{
								"box" : 								{
									"comment" : "",
									"id" : "obj-78",
									"index" : 3,
									"maxclass" : "inlet",
									"numinlets" : 0,
									"numoutlets" : 1,
									"outlettype" : [ "" ],
									"patching_rect" : [ 301.475218534469604, 40.0, 30.0, 30.0 ]
								}

							}
, 							{
								"box" : 								{
									"comment" : "",
									"id" : "obj-79",
									"index" : 1,
									"maxclass" : "outlet",
									"numinlets" : 1,
									"numoutlets" : 0,
									"patching_rect" : [ 63.475218534469604, 629.451476999999954, 30.0, 30.0 ]
								}

							}
, 							{
								"box" : 								{
									"comment" : "",
									"id" : "obj-80",
									"index" : 2,
									"maxclass" : "outlet",
									"numinlets" : 1,
									"numoutlets" : 0,
									"patching_rect" : [ 98.475218534469604, 629.451476999999954, 30.0, 30.0 ]
								}

							}
, 							{
								"box" : 								{
									"comment" : "",
									"id" : "obj-83",
									"index" : 3,
									"maxclass" : "outlet",
									"numinlets" : 1,
									"numoutlets" : 0,
									"patching_rect" : [ 133.475218534469604, 629.451476999999954, 30.0, 30.0 ]
								}

							}
, 							{
								"box" : 								{
									"comment" : "",
									"id" : "obj-85",
									"index" : 4,
									"maxclass" : "outlet",
									"numinlets" : 1,
									"numoutlets" : 0,
									"patching_rect" : [ 168.475218534469604, 629.451476999999954, 30.0, 30.0 ]
								}

							}
, 							{
								"box" : 								{
									"comment" : "",
									"id" : "obj-86",
									"index" : 5,
									"maxclass" : "outlet",
									"numinlets" : 1,
									"numoutlets" : 0,
									"patching_rect" : [ 291.475218534469604, 629.451476999999954, 30.0, 30.0 ]
								}

							}
 ],
						"lines" : [ 							{
								"patchline" : 								{
									"destination" : [ "obj-2", 10 ],
									"midpoints" : [ 227.761885201136266, 122.0, 226.508551867802936, 122.0 ],
									"source" : [ "obj-1", 9 ]
								}

							}
, 							{
								"patchline" : 								{
									"destination" : [ "obj-2", 9 ],
									"midpoints" : [ 212.095218534469581, 122.0, 211.155218534469611, 122.0 ],
									"source" : [ "obj-1", 8 ]
								}

							}
, 							{
								"patchline" : 								{
									"destination" : [ "obj-2", 8 ],
									"midpoints" : [ 196.428551867802923, 122.0, 195.801885201136258, 122.0 ],
									"source" : [ "obj-1", 7 ]
								}

							}
, 							{
								"patchline" : 								{
									"destination" : [ "obj-2", 7 ],
									"midpoints" : [ 180.761885201136266, 122.0, 180.448551867802934, 122.0 ],
									"source" : [ "obj-1", 6 ]
								}

							}
, 							{
								"patchline" : 								{
									"destination" : [ "obj-2", 6 ],
									"midpoints" : [ 165.095218534469609, 122.0, 165.095218534469609, 122.0 ],
									"source" : [ "obj-1", 5 ]
								}

							}
, 							{
								"patchline" : 								{
									"destination" : [ "obj-2", 5 ],
									"midpoints" : [ 149.428551867802923, 122.0, 149.741885201136256, 122.0 ],
									"source" : [ "obj-1", 4 ]
								}

							}
, 							{
								"patchline" : 								{
									"destination" : [ "obj-2", 4 ],
									"midpoints" : [ 133.761885201136266, 122.0, 134.388551867802931, 122.0 ],
									"source" : [ "obj-1", 3 ]
								}

							}
, 							{
								"patchline" : 								{
									"destination" : [ "obj-2", 3 ],
									"midpoints" : [ 118.095218534469595, 122.0, 119.035218534469607, 122.0 ],
									"source" : [ "obj-1", 2 ]
								}

							}
, 							{
								"patchline" : 								{
									"destination" : [ "obj-2", 2 ],
									"midpoints" : [ 102.428551867802923, 125.0, 103.681885201136268, 125.0 ],
									"source" : [ "obj-1", 1 ]
								}

							}
, 							{
								"patchline" : 								{
									"destination" : [ "obj-2", 1 ],
									"midpoints" : [ 86.761885201136266, 125.0, 88.328551867802929, 125.0 ],
									"source" : [ "obj-1", 0 ]
								}

							}
, 							{
								"patchline" : 								{
									"destination" : [ "obj-20", 0 ],
									"midpoints" : [ 72.975218534469604, 431.0, 59.5, 431.0 ],
									"order" : 1,
									"source" : [ "obj-2", 0 ]
								}

							}
, 							{
								"patchline" : 								{
									"destination" : [ "obj-79", 0 ],
									"order" : 0,
									"source" : [ "obj-2", 0 ]
								}

							}
, 							{
								"patchline" : 								{
									"destination" : [ "obj-22", 0 ],
									"midpoints" : [ 87.5, 476.0, 276.475218534469604, 476.0, 276.475218534469604, 410.0, 300.975218534469604, 410.0 ],
									"order" : 0,
									"source" : [ "obj-20", 1 ]
								}

							}
, 							{
								"patchline" : 								{
									"destination" : [ "obj-8", 0 ],
									"order" : 2,
									"source" : [ "obj-20", 1 ]
								}

							}
, 							{
								"patchline" : 								{
									"destination" : [ "obj-83", 0 ],
									"order" : 1,
									"source" : [ "obj-20", 1 ]
								}

							}
, 							{
								"patchline" : 								{
									"color" : [ 0.0, 1.0, 0.0, 1.0 ],
									"destination" : [ "obj-9", 1 ],
									"midpoints" : [ 59.5, 494.0, 156.5, 494.0 ],
									"source" : [ "obj-20", 0 ]
								}

							}
, 							{
								"patchline" : 								{
									"destination" : [ "obj-86", 0 ],
									"source" : [ "obj-22", 0 ]
								}

							}
, 							{
								"patchline" : 								{
									"destination" : [ "obj-2", 0 ],
									"source" : [ "obj-76", 0 ]
								}

							}
, 							{
								"patchline" : 								{
									"destination" : [ "obj-20", 1 ],
									"source" : [ "obj-77", 0 ]
								}

							}
, 							{
								"patchline" : 								{
									"destination" : [ "obj-22", 1 ],
									"source" : [ "obj-78", 0 ]
								}

							}
, 							{
								"patchline" : 								{
									"destination" : [ "obj-80", 0 ],
									"source" : [ "obj-8", 0 ]
								}

							}
, 							{
								"patchline" : 								{
									"destination" : [ "obj-9", 0 ],
									"source" : [ "obj-8", 1 ]
								}

							}
, 							{
								"patchline" : 								{
									"destination" : [ "obj-85", 0 ],
									"source" : [ "obj-9", 0 ]
								}

							}
 ],
						"elementcolor" : [ 0.556862745098039, 0.556862745098039, 0.556862745098039, 1.0 ],
						"accentcolor" : [ 0.937254901960784, 0.729411764705882, 0.980392156862745, 1.0 ],
						"textcolor" : [ 1.0, 1.0, 1.0, 1.0 ],
						"patchlinecolor" : [ 0.43921568627451, 0.949019607843137, 1.0, 1.0 ],
						"bgcolor" : [ 0.368627450980392, 0.368627450980392, 0.368627450980392, 1.0 ],
						"editing_bgcolor" : [ 0.443137254901961, 0.443137254901961, 0.443137254901961, 1.0 ]
					}
,
					"patching_rect" : [ 270.524781000000019, 197.0, 111.0, 21.0 ],
					"saved_object_attributes" : 					{
						"accentcolor" : [ 0.937254901960784, 0.729411764705882, 0.980392156862745, 1.0 ],
						"description" : "",
						"digest" : "",
						"editing_bgcolor" : [ 0.443137254901961, 0.443137254901961, 0.443137254901961, 1.0 ],
						"elementcolor" : [ 0.556862745098039, 0.556862745098039, 0.556862745098039, 1.0 ],
						"fontface" : 1,
						"fontname" : "Consolas",
						"fontsize" : 11.0,
						"globalpatchername" : "",
						"locked_bgcolor" : [ 0.368627450980392, 0.368627450980392, 0.368627450980392, 1.0 ],
						"patchlinecolor" : [ 0.43921568627451, 0.949019607843137, 1.0, 1.0 ],
						"tags" : "",
						"textcolor" : [ 1.0, 1.0, 1.0, 1.0 ]
					}
,
					"text" : "p standardTrigger"
				}

			}
, 			{
				"box" : 				{
					"id" : "obj-87",
					"maxclass" : "newobj",
					"numinlets" : 3,
					"numoutlets" : 5,
					"outlettype" : [ "signal", "bang", "bang", "float", "int" ],
					"patcher" : 					{
						"fileversion" : 1,
						"appversion" : 						{
							"major" : 8,
							"minor" : 1,
							"revision" : 8,
							"architecture" : "x64",
							"modernui" : 1
						}
,
						"classnamespace" : "box",
						"rect" : [ 41.0, 84.0, 1003.0, 713.0 ],
						"bglocked" : 0,
						"openinpresentation" : 0,
						"default_fontsize" : 11.0,
						"default_fontface" : 1,
						"default_fontname" : "Consolas",
						"gridonopen" : 1,
						"gridsize" : [ 15.0, 15.0 ],
						"gridsnaponopen" : 1,
						"objectsnaponopen" : 1,
						"statusbarvisible" : 2,
						"toolbarvisible" : 1,
						"lefttoolbarpinned" : 0,
						"toptoolbarpinned" : 0,
						"righttoolbarpinned" : 0,
						"bottomtoolbarpinned" : 0,
						"toolbars_unpinned_last_save" : 0,
						"tallnewobj" : 0,
						"boxanimatetime" : 200,
						"enablehscroll" : 1,
						"enablevscroll" : 1,
						"devicewidth" : 0.0,
						"description" : "",
						"digest" : "",
						"tags" : "",
						"style" : "",
						"subpatcher_template" : "Untitled1_template",
						"assistshowspatchername" : 0,
						"boxes" : [ 							{
								"box" : 								{
									"id" : "obj-22",
									"maxclass" : "newobj",
									"numinlets" : 2,
									"numoutlets" : 1,
									"outlettype" : [ "int" ],
									"patching_rect" : [ 291.475218534469604, 548.45147693157196, 29.5, 21.0 ],
									"text" : "int"
								}

							}
, 							{
								"box" : 								{
									"id" : "obj-9",
									"maxclass" : "newobj",
									"numinlets" : 2,
									"numoutlets" : 1,
									"outlettype" : [ "float" ],
									"patching_rect" : [ 127.0, 507.14252270600889, 39.0, 21.0 ],
									"text" : "float"
								}

							}
, 							{
								"box" : 								{
									"id" : "obj-8",
									"maxclass" : "newobj",
									"numinlets" : 1,
									"numoutlets" : 2,
									"outlettype" : [ "bang", "bang" ],
									"patching_rect" : [ 81.0, 507.14252270600889, 39.0, 21.0 ],
									"text" : "t b b"
								}

							}
, 							{
								"box" : 								{
									"id" : "obj-20",
									"maxclass" : "newobj",
									"numinlets" : 2,
									"numoutlets" : 3,
									"outlettype" : [ "", "bang", "float" ],
									"patcher" : 									{
										"fileversion" : 1,
										"appversion" : 										{
											"major" : 8,
											"minor" : 1,
											"revision" : 8,
											"architecture" : "x64",
											"modernui" : 1
										}
,
										"classnamespace" : "box",
										"rect" : [ 463.0, 192.0, 334.0, 480.0 ],
										"bglocked" : 0,
										"openinpresentation" : 0,
										"default_fontsize" : 12.0,
										"default_fontface" : 0,
										"default_fontname" : "Arial",
										"gridonopen" : 1,
										"gridsize" : [ 15.0, 15.0 ],
										"gridsnaponopen" : 1,
										"objectsnaponopen" : 1,
										"statusbarvisible" : 2,
										"toolbarvisible" : 1,
										"lefttoolbarpinned" : 0,
										"toptoolbarpinned" : 0,
										"righttoolbarpinned" : 0,
										"bottomtoolbarpinned" : 0,
										"toolbars_unpinned_last_save" : 0,
										"tallnewobj" : 0,
										"boxanimatetime" : 200,
										"enablehscroll" : 1,
										"enablevscroll" : 1,
										"devicewidth" : 0.0,
										"description" : "",
										"digest" : "",
										"tags" : "",
										"style" : "",
										"subpatcher_template" : "",
										"assistshowspatchername" : 0,
										"boxes" : [ 											{
												"box" : 												{
													"id" : "obj-5",
													"maxclass" : "newobj",
													"numinlets" : 2,
													"numoutlets" : 1,
													"outlettype" : [ "signal" ],
													"patching_rect" : [ 237.0, 395.0, 58.0, 22.0 ],
													"text" : "onepole~"
												}

											}
, 											{
												"box" : 												{
													"comment" : "",
													"id" : "obj-4",
													"index" : 3,
													"maxclass" : "outlet",
													"numinlets" : 1,
													"numoutlets" : 0,
													"patching_rect" : [ 82.0, 281.0, 30.0, 30.0 ]
												}

											}
, 											{
												"box" : 												{
													"id" : "obj-9",
													"maxclass" : "newobj",
													"numinlets" : 1,
													"numoutlets" : 1,
													"outlettype" : [ "" ],
													"patching_rect" : [ 11.02409291267395, 234.0, 39.0, 22.0 ],
													"text" : "atodb"
												}

											}
, 											{
												"box" : 												{
													"comment" : "",
													"id" : "obj-3",
													"index" : 2,
													"maxclass" : "outlet",
													"numinlets" : 1,
													"numoutlets" : 0,
													"patching_rect" : [ 46.0, 281.0, 30.0, 30.0 ]
												}

											}
, 											{
												"box" : 												{
													"comment" : "",
													"id" : "obj-1",
													"index" : 2,
													"maxclass" : "inlet",
													"numinlets" : 0,
													"numoutlets" : 1,
													"outlettype" : [ "" ],
													"patching_rect" : [ 132.0, 65.0, 30.0, 30.0 ]
												}

											}
, 											{
												"box" : 												{
													"id" : "obj-138",
													"maxclass" : "newobj",
													"numinlets" : 2,
													"numoutlets" : 2,
													"outlettype" : [ "bang", "" ],
													"patching_rect" : [ 106.0, 209.0, 50.0, 22.0 ],
													"text" : "select 1"
												}

											}
, 											{
												"box" : 												{
													"id" : "obj-131",
													"maxclass" : "newobj",
													"numinlets" : 2,
													"numoutlets" : 1,
													"outlettype" : [ "int" ],
													"patching_rect" : [ 106.0, 179.0, 40.0, 22.0 ],
													"text" : "> -60."
												}

											}
, 											{
												"box" : 												{
													"id" : "obj-130",
													"maxclass" : "newobj",
													"numinlets" : 2,
													"numoutlets" : 1,
													"outlettype" : [ "float" ],
													"patching_rect" : [ 11.02409291267395, 179.0, 81.0, 22.0 ],
													"text" : "snapshot~ 80"
												}

											}
, 											{
												"box" : 												{
													"id" : "obj-122",
													"maxclass" : "newobj",
													"numinlets" : 1,
													"numoutlets" : 1,
													"outlettype" : [ "signal" ],
													"patching_rect" : [ 11.02409291267395, 149.228524506092072, 106.0, 22.0 ],
													"text" : "average~ 256 rms"
												}

											}
, 											{
												"box" : 												{
													"comment" : "",
													"id" : "obj-2",
													"index" : 1,
													"maxclass" : "inlet",
													"numinlets" : 0,
													"numoutlets" : 1,
													"outlettype" : [ "signal" ],
													"patching_rect" : [ 11.02409291267395, 65.0, 30.0, 30.0 ]
												}

											}
, 											{
												"box" : 												{
													"comment" : "",
													"id" : "obj-22",
													"index" : 1,
													"maxclass" : "outlet",
													"numinlets" : 1,
													"numoutlets" : 0,
													"patching_rect" : [ 11.02409291267395, 281.0, 30.0, 30.0 ]
												}

											}
 ],
										"lines" : [ 											{
												"patchline" : 												{
													"destination" : [ "obj-131", 1 ],
													"source" : [ "obj-1", 0 ]
												}

											}
, 											{
												"patchline" : 												{
													"destination" : [ "obj-130", 0 ],
													"source" : [ "obj-122", 0 ]
												}

											}
, 											{
												"patchline" : 												{
													"destination" : [ "obj-4", 0 ],
													"midpoints" : [ 20.52409291267395, 219.0, 93.0, 219.0, 93.0, 267.0, 91.5, 267.0 ],
													"order" : 0,
													"source" : [ "obj-130", 0 ]
												}

											}
, 											{
												"patchline" : 												{
													"destination" : [ "obj-9", 0 ],
													"order" : 1,
													"source" : [ "obj-130", 0 ]
												}

											}
, 											{
												"patchline" : 												{
													"destination" : [ "obj-138", 0 ],
													"source" : [ "obj-131", 0 ]
												}

											}
, 											{
												"patchline" : 												{
													"destination" : [ "obj-3", 0 ],
													"midpoints" : [ 115.5, 267.0, 55.5, 267.0 ],
													"source" : [ "obj-138", 0 ]
												}

											}
, 											{
												"patchline" : 												{
													"destination" : [ "obj-122", 0 ],
													"source" : [ "obj-2", 0 ]
												}

											}
, 											{
												"patchline" : 												{
													"destination" : [ "obj-131", 0 ],
													"midpoints" : [ 20.52409291267395, 267.0, 93.0, 267.0, 93.0, 174.0, 115.5, 174.0 ],
													"order" : 0,
													"source" : [ "obj-9", 0 ]
												}

											}
, 											{
												"patchline" : 												{
													"destination" : [ "obj-22", 0 ],
													"order" : 1,
													"source" : [ "obj-9", 0 ]
												}

											}
 ]
									}
,
									"patching_rect" : [ 50.0, 445.283231139183044, 75.0, 21.0 ],
									"saved_object_attributes" : 									{
										"description" : "",
										"digest" : "",
										"globalpatchername" : "",
										"tags" : ""
									}
,
									"text" : "p sigToTrig"
								}

							}
, 							{
								"box" : 								{
									"id" : "obj-2",
									"maxclass" : "newobj",
									"numinlets" : 11,
									"numoutlets" : 1,
									"outlettype" : [ "signal" ],
									"patching_rect" : [ 63.475218534469604, 143.0, 172.533333333333331, 21.0 ],
									"text" : "selector~ 10"
								}

							}
, 							{
								"box" : 								{
									"id" : "obj-1",
									"maxclass" : "newobj",
									"numinlets" : 1,
									"numoutlets" : 10,
									"outlettype" : [ "signal", "signal", "signal", "signal", "signal", "signal", "signal", "signal", "signal", "signal" ],
									"patching_rect" : [ 77.261885201136266, 100.0, 160.0, 21.0 ],
									"text" : "adc~ 1 2 3 4 5 6 7 8 9 10"
								}

							}
, 							{
								"box" : 								{
									"comment" : "",
									"id" : "obj-76",
									"index" : 1,
									"maxclass" : "inlet",
									"numinlets" : 0,
									"numoutlets" : 1,
									"outlettype" : [ "int" ],
									"patching_rect" : [ 63.475218534469604, 40.0, 30.0, 30.0 ]
								}

							}
, 							{
								"box" : 								{
									"comment" : "",
									"id" : "obj-77",
									"index" : 2,
									"maxclass" : "inlet",
									"numinlets" : 0,
									"numoutlets" : 1,
									"outlettype" : [ "" ],
									"patching_rect" : [ 105.999998534469597, 40.0, 30.0, 30.0 ]
								}

							}
, 							{
								"box" : 								{
									"comment" : "",
									"id" : "obj-78",
									"index" : 3,
									"maxclass" : "inlet",
									"numinlets" : 0,
									"numoutlets" : 1,
									"outlettype" : [ "" ],
									"patching_rect" : [ 301.475218534469604, 40.0, 30.0, 30.0 ]
								}

							}
, 							{
								"box" : 								{
									"comment" : "",
									"id" : "obj-79",
									"index" : 1,
									"maxclass" : "outlet",
									"numinlets" : 1,
									"numoutlets" : 0,
									"patching_rect" : [ 63.475218534469604, 629.451476999999954, 30.0, 30.0 ]
								}

							}
, 							{
								"box" : 								{
									"comment" : "",
									"id" : "obj-80",
									"index" : 2,
									"maxclass" : "outlet",
									"numinlets" : 1,
									"numoutlets" : 0,
									"patching_rect" : [ 98.475218534469604, 629.451476999999954, 30.0, 30.0 ]
								}

							}
, 							{
								"box" : 								{
									"comment" : "",
									"id" : "obj-83",
									"index" : 3,
									"maxclass" : "outlet",
									"numinlets" : 1,
									"numoutlets" : 0,
									"patching_rect" : [ 133.475218534469604, 629.451476999999954, 30.0, 30.0 ]
								}

							}
, 							{
								"box" : 								{
									"comment" : "",
									"id" : "obj-85",
									"index" : 4,
									"maxclass" : "outlet",
									"numinlets" : 1,
									"numoutlets" : 0,
									"patching_rect" : [ 168.475218534469604, 629.451476999999954, 30.0, 30.0 ]
								}

							}
, 							{
								"box" : 								{
									"comment" : "",
									"id" : "obj-86",
									"index" : 5,
									"maxclass" : "outlet",
									"numinlets" : 1,
									"numoutlets" : 0,
									"patching_rect" : [ 291.475218534469604, 629.451476999999954, 30.0, 30.0 ]
								}

							}
 ],
						"lines" : [ 							{
								"patchline" : 								{
									"destination" : [ "obj-2", 10 ],
									"midpoints" : [ 227.761885201136266, 122.0, 226.508551867802936, 122.0 ],
									"source" : [ "obj-1", 9 ]
								}

							}
, 							{
								"patchline" : 								{
									"destination" : [ "obj-2", 9 ],
									"midpoints" : [ 212.095218534469581, 122.0, 211.155218534469611, 122.0 ],
									"source" : [ "obj-1", 8 ]
								}

							}
, 							{
								"patchline" : 								{
									"destination" : [ "obj-2", 8 ],
									"midpoints" : [ 196.428551867802923, 122.0, 195.801885201136258, 122.0 ],
									"source" : [ "obj-1", 7 ]
								}

							}
, 							{
								"patchline" : 								{
									"destination" : [ "obj-2", 7 ],
									"midpoints" : [ 180.761885201136266, 122.0, 180.448551867802934, 122.0 ],
									"source" : [ "obj-1", 6 ]
								}

							}
, 							{
								"patchline" : 								{
									"destination" : [ "obj-2", 6 ],
									"midpoints" : [ 165.095218534469609, 122.0, 165.095218534469609, 122.0 ],
									"source" : [ "obj-1", 5 ]
								}

							}
, 							{
								"patchline" : 								{
									"destination" : [ "obj-2", 5 ],
									"midpoints" : [ 149.428551867802923, 122.0, 149.741885201136256, 122.0 ],
									"source" : [ "obj-1", 4 ]
								}

							}
, 							{
								"patchline" : 								{
									"destination" : [ "obj-2", 4 ],
									"midpoints" : [ 133.761885201136266, 122.0, 134.388551867802931, 122.0 ],
									"source" : [ "obj-1", 3 ]
								}

							}
, 							{
								"patchline" : 								{
									"destination" : [ "obj-2", 3 ],
									"midpoints" : [ 118.095218534469595, 122.0, 119.035218534469607, 122.0 ],
									"source" : [ "obj-1", 2 ]
								}

							}
, 							{
								"patchline" : 								{
									"destination" : [ "obj-2", 2 ],
									"midpoints" : [ 102.428551867802923, 125.0, 103.681885201136268, 125.0 ],
									"source" : [ "obj-1", 1 ]
								}

							}
, 							{
								"patchline" : 								{
									"destination" : [ "obj-2", 1 ],
									"midpoints" : [ 86.761885201136266, 125.0, 88.328551867802929, 125.0 ],
									"source" : [ "obj-1", 0 ]
								}

							}
, 							{
								"patchline" : 								{
									"destination" : [ "obj-20", 0 ],
									"midpoints" : [ 72.975218534469604, 431.0, 59.5, 431.0 ],
									"order" : 1,
									"source" : [ "obj-2", 0 ]
								}

							}
, 							{
								"patchline" : 								{
									"destination" : [ "obj-79", 0 ],
									"order" : 0,
									"source" : [ "obj-2", 0 ]
								}

							}
, 							{
								"patchline" : 								{
									"destination" : [ "obj-22", 0 ],
									"midpoints" : [ 87.5, 476.0, 276.475218534469604, 476.0, 276.475218534469604, 410.0, 300.975218534469604, 410.0 ],
									"order" : 0,
									"source" : [ "obj-20", 1 ]
								}

							}
, 							{
								"patchline" : 								{
									"destination" : [ "obj-8", 0 ],
									"order" : 2,
									"source" : [ "obj-20", 1 ]
								}

							}
, 							{
								"patchline" : 								{
									"destination" : [ "obj-83", 0 ],
									"order" : 1,
									"source" : [ "obj-20", 1 ]
								}

							}
, 							{
								"patchline" : 								{
									"color" : [ 0.0, 1.0, 0.0, 1.0 ],
									"destination" : [ "obj-9", 1 ],
									"midpoints" : [ 59.5, 494.0, 156.5, 494.0 ],
									"source" : [ "obj-20", 0 ]
								}

							}
, 							{
								"patchline" : 								{
									"destination" : [ "obj-86", 0 ],
									"source" : [ "obj-22", 0 ]
								}

							}
, 							{
								"patchline" : 								{
									"destination" : [ "obj-2", 0 ],
									"source" : [ "obj-76", 0 ]
								}

							}
, 							{
								"patchline" : 								{
									"destination" : [ "obj-20", 1 ],
									"source" : [ "obj-77", 0 ]
								}

							}
, 							{
								"patchline" : 								{
									"destination" : [ "obj-22", 1 ],
									"source" : [ "obj-78", 0 ]
								}

							}
, 							{
								"patchline" : 								{
									"destination" : [ "obj-80", 0 ],
									"source" : [ "obj-8", 0 ]
								}

							}
, 							{
								"patchline" : 								{
									"destination" : [ "obj-9", 0 ],
									"source" : [ "obj-8", 1 ]
								}

							}
, 							{
								"patchline" : 								{
									"destination" : [ "obj-85", 0 ],
									"source" : [ "obj-9", 0 ]
								}

							}
 ],
						"elementcolor" : [ 0.556862745098039, 0.556862745098039, 0.556862745098039, 1.0 ],
						"accentcolor" : [ 0.937254901960784, 0.729411764705882, 0.980392156862745, 1.0 ],
						"textcolor" : [ 1.0, 1.0, 1.0, 1.0 ],
						"patchlinecolor" : [ 0.43921568627451, 0.949019607843137, 1.0, 1.0 ],
						"bgcolor" : [ 0.368627450980392, 0.368627450980392, 0.368627450980392, 1.0 ],
						"editing_bgcolor" : [ 0.443137254901961, 0.443137254901961, 0.443137254901961, 1.0 ]
					}
,
					"patching_rect" : [ 34.524780999999997, 197.0, 111.0, 21.0 ],
					"saved_object_attributes" : 					{
						"accentcolor" : [ 0.937254901960784, 0.729411764705882, 0.980392156862745, 1.0 ],
						"description" : "",
						"digest" : "",
						"editing_bgcolor" : [ 0.443137254901961, 0.443137254901961, 0.443137254901961, 1.0 ],
						"elementcolor" : [ 0.556862745098039, 0.556862745098039, 0.556862745098039, 1.0 ],
						"fontface" : 1,
						"fontname" : "Consolas",
						"fontsize" : 11.0,
						"globalpatchername" : "",
						"locked_bgcolor" : [ 0.368627450980392, 0.368627450980392, 0.368627450980392, 1.0 ],
						"patchlinecolor" : [ 0.43921568627451, 0.949019607843137, 1.0, 1.0 ],
						"tags" : "",
						"textcolor" : [ 1.0, 1.0, 1.0, 1.0 ]
					}
,
					"text" : "p standardTrigger"
				}

			}
, 			{
				"box" : 				{
					"id" : "obj-75",
					"linecount" : 2,
					"maxclass" : "comment",
					"numinlets" : 1,
					"numoutlets" : 0,
					"patching_rect" : [ 666.877875089645386, 53.0, 51.0, 32.0 ],
					"presentation" : 1,
					"presentation_rect" : [ 405.715909242630005, 114.5, 100.0, 19.0 ],
					"text" : "indicator"
				}

			}
, 			{
				"box" : 				{
					"id" : "obj-63",
					"linecount" : 2,
					"maxclass" : "comment",
					"numinlets" : 1,
					"numoutlets" : 0,
					"patching_rect" : [ 507.125, 18.902757406234741, 57.0, 32.0 ],
					"presentation" : 1,
					"presentation_rect" : [ 87.805235088864947, 94.0, 86.0, 19.0 ],
					"text" : "presetNumber"
				}

			}
, 			{
				"box" : 				{
					"id" : "obj-46",
					"maxclass" : "newobj",
					"numinlets" : 2,
					"numoutlets" : 1,
					"outlettype" : [ "int" ],
					"patching_rect" : [ 1066.0, 622.0, 29.5, 21.0 ],
					"text" : "+ 1"
				}

			}
, 			{
				"box" : 				{
					"id" : "obj-43",
					"maxclass" : "number",
					"numinlets" : 1,
					"numoutlets" : 2,
					"outlettype" : [ "", "bang" ],
					"parameter_enable" : 0,
					"patching_rect" : [ 1016.0, 652.0, 50.0, 21.0 ]
				}

			}
, 			{
				"box" : 				{
					"comment" : "amplitude",
					"id" : "obj-29",
					"index" : 2,
					"maxclass" : "outlet",
					"numinlets" : 1,
					"numoutlets" : 0,
					"patching_rect" : [ 64.524781465530396, 647.186594724655151, 30.0, 30.0 ]
				}

			}
, 			{
				"box" : 				{
					"id" : "obj-28",
					"maxclass" : "newobj",
					"numinlets" : 1,
					"numoutlets" : 1,
					"outlettype" : [ "" ],
					"patching_rect" : [ 1225.625, 196.0, 69.0, 21.0 ],
					"text" : "loadmess 1"
				}

			}
, 			{
				"box" : 				{
					"id" : "obj-10",
					"maxclass" : "newobj",
					"numinlets" : 1,
					"numoutlets" : 1,
					"outlettype" : [ "" ],
					"patching_rect" : [ 875.625, 214.0, 81.0, 21.0 ],
					"text" : "loadmess -60"
				}

			}
, 			{
				"box" : 				{
					"format" : 6,
					"id" : "obj-12",
					"maxclass" : "flonum",
					"numinlets" : 1,
					"numoutlets" : 2,
					"outlettype" : [ "", "bang" ],
					"parameter_enable" : 0,
					"patching_rect" : [ 896.5, 279.0, 50.0, 21.0 ],
					"presentation" : 1,
					"presentation_rect" : [ 235.125, 177.0, 50.0, 21.0 ]
				}

			}
, 			{
				"box" : 				{
					"comment" : "presetModifier",
					"id" : "obj-30",
					"index" : 4,
					"maxclass" : "outlet",
					"numinlets" : 1,
					"numoutlets" : 0,
					"patching_rect" : [ 221.524781465530396, 651.186594724655151, 30.0, 30.0 ]
				}

			}
, 			{
				"box" : 				{
					"id" : "obj-84",
					"linecount" : 2,
					"maxclass" : "comment",
					"numinlets" : 1,
					"numoutlets" : 0,
					"patching_rect" : [ 1351.125, 651.619316458702087, 57.0, 32.0 ],
					"presentation" : 1,
					"presentation_rect" : [ 235.125, 148.693080544471741, 151.0, 19.0 ],
					"text" : "currentTimbre"
				}

			}
, 			{
				"box" : 				{
					"id" : "obj-82",
					"linecount" : 3,
					"maxclass" : "comment",
					"numinlets" : 1,
					"numoutlets" : 0,
					"patching_rect" : [ 679.625, 25.590339303016663, 57.0, 45.0 ],
					"presentation" : 1,
					"presentation_rect" : [ 344.125, 16.693080544471741, 151.0, 19.0 ],
					"text" : "soundDesciptor onOff"
				}

			}
, 			{
				"box" : 				{
					"id" : "obj-81",
					"maxclass" : "newobj",
					"numinlets" : 1,
					"numoutlets" : 1,
					"outlettype" : [ "bang" ],
					"patching_rect" : [ 37.524781465530396, 99.0, 57.0, 21.0 ],
					"text" : "loadbang"
				}

			}
, 			{
				"box" : 				{
					"id" : "obj-59",
					"maxclass" : "comment",
					"numinlets" : 1,
					"numoutlets" : 0,
					"patching_rect" : [ 692.625, 48.873759150505066, 50.790433317422867, 19.0 ],
					"presentation" : 1,
					"presentation_rect" : [ 354.715909242630005, 42.409660696983337, 100.0, 19.0 ],
					"text" : "mode"
				}

			}
, 			{
				"box" : 				{
					"id" : "obj-49",
					"linecount" : 2,
					"maxclass" : "comment",
					"numinlets" : 1,
					"numoutlets" : 0,
					"patching_rect" : [ 650.053432703018188, 42.373759150505066, 51.0, 32.0 ],
					"presentation" : 1,
					"presentation_rect" : [ 239.125, 42.409660696983337, 100.0, 19.0 ],
					"text" : "timbreVariable"
				}

			}
, 			{
				"box" : 				{
					"fontsize" : 27.0,
					"id" : "obj-48",
					"maxclass" : "message",
					"numinlets" : 2,
					"numoutlets" : 1,
					"outlettype" : [ "" ],
					"patching_rect" : [ 1212.0, 643.619316458702087, 130.0, 40.0 ],
					"presentation" : 1,
					"presentation_rect" : [ 235.125, 101.5, 130.0, 40.0 ],
					"text" : "b"
				}

			}
, 			{
				"box" : 				{
					"id" : "obj-74",
					"items" : [ "a", ",", "b", ",", "c", ",", "d", ",", "e", ",", "f", ",", "g", ",", "h", ",", "i", ",", "j", ",", "k", ",", "l", ",", "m", ",", "n", ",", "o" ],
					"maxclass" : "umenu",
					"numinlets" : 1,
					"numoutlets" : 3,
					"outlettype" : [ "int", "", "" ],
					"parameter_enable" : 0,
					"patching_rect" : [ 1081.488636493682861, 588.119316458702087, 100.0, 21.0 ],
					"varname" : "itemIndicator[1]"
				}

			}
, 			{
				"box" : 				{
					"id" : "obj-73",
					"maxclass" : "newobj",
					"numinlets" : 1,
					"numoutlets" : 1,
					"outlettype" : [ "" ],
					"patching_rect" : [ 659.090902805328369, 364.772723793983459, 75.0, 21.0 ],
					"text" : "loadmess 24"
				}

			}
, 			{
				"box" : 				{
					"id" : "obj-52",
					"maxclass" : "message",
					"numinlets" : 2,
					"numoutlets" : 1,
					"outlettype" : [ "" ],
					"patching_rect" : [ 1364.715909242630005, 162.755685925483704, 39.0, 21.0 ],
					"presentation" : 1,
					"presentation_rect" : [ 466.715909242630005, 63.409660696983337, 39.0, 21.0 ],
					"text" : "clear"
				}

			}
, 			{
				"box" : 				{
					"id" : "obj-42",
					"maxclass" : "newobj",
					"numinlets" : 2,
					"numoutlets" : 2,
					"outlettype" : [ "bang", "" ],
					"patching_rect" : [ 1378.125, 503.4375, 39.0, 21.0 ],
					"text" : "sel 1"
				}

			}
, 			{
				"box" : 				{
					"id" : "obj-41",
					"maxclass" : "newobj",
					"numinlets" : 2,
					"numoutlets" : 1,
					"outlettype" : [ "int" ],
					"patching_rect" : [ 1319.625, 503.4375, 29.5, 21.0 ],
					"text" : "+ 1"
				}

			}
, 			{
				"box" : 				{
					"id" : "obj-40",
					"items" : [ "train", ",", "query" ],
					"maxclass" : "umenu",
					"numinlets" : 1,
					"numoutlets" : 3,
					"outlettype" : [ "int", "", "" ],
					"parameter_enable" : 0,
					"patching_rect" : [ 1303.715909242630005, 123.98295783996582, 100.0, 21.0 ],
					"presentation" : 1,
					"presentation_rect" : [ 354.715909242630005, 63.409660696983337, 100.0, 21.0 ]
				}

			}
, 			{
				"box" : 				{
					"id" : "obj-39",
					"maxclass" : "newobj",
					"numinlets" : 3,
					"numoutlets" : 1,
					"outlettype" : [ "" ],
					"patching_rect" : [ 1095.625, 483.4375, 45.0, 21.0 ],
					"text" : "switch"
				}

			}
, 			{
				"box" : 				{
					"id" : "obj-44",
					"maxclass" : "message",
					"numinlets" : 2,
					"numoutlets" : 1,
					"outlettype" : [ "" ],
					"patching_rect" : [ 1255.625, 469.4375, 33.0, 21.0 ],
					"text" : "sort"
				}

			}
, 			{
				"box" : 				{
					"id" : "obj-24",
					"maxclass" : "newobj",
					"numinlets" : 1,
					"numoutlets" : 1,
					"outlettype" : [ "" ],
					"patching_rect" : [ 1144.625, 451.4375, 87.0, 21.0 ],
					"text" : "prepend store"
				}

			}
, 			{
				"box" : 				{
					"id" : "obj-23",
					"maxclass" : "newobj",
					"numinlets" : 2,
					"numoutlets" : 1,
					"outlettype" : [ "int" ],
					"patching_rect" : [ 1144.625, 379.4375, 29.5, 21.0 ],
					"text" : "int"
				}

			}
, 			{
				"box" : 				{
					"id" : "obj-45",
					"maxclass" : "newobj",
					"numinlets" : 1,
					"numoutlets" : 1,
					"outlettype" : [ "bang" ],
					"patching_rect" : [ 1113.625, 344.4375, 27.0, 21.0 ],
					"text" : "t b"
				}

			}
, 			{
				"box" : 				{
					"id" : "obj-51",
					"maxclass" : "newobj",
					"numinlets" : 2,
					"numoutlets" : 2,
					"outlettype" : [ "", "" ],
					"patching_rect" : [ 1144.625, 412.4375, 51.0, 21.0 ],
					"text" : "zl.join"
				}

			}
, 			{
				"box" : 				{
					"id" : "obj-53",
					"items" : [ "a", ",", "b", ",", "c", ",", "d", ",", "e", ",", "f", ",", "g", ",", "h", ",", "i", ",", "j", ",", "k", ",", "l", ",", "m", ",", "n", ",", "o" ],
					"maxclass" : "umenu",
					"numinlets" : 1,
					"numoutlets" : 3,
					"outlettype" : [ "int", "", "" ],
					"parameter_enable" : 0,
					"patching_rect" : [ 1155.125, 123.98295783996582, 100.0, 21.0 ],
					"presentation" : 1,
					"presentation_rect" : [ 239.125, 63.409660696983337, 100.0, 21.0 ],
					"varname" : "itemIndicator"
				}

			}
, 			{
				"box" : 				{
					"id" : "obj-54",
					"maxclass" : "newobj",
					"numinlets" : 1,
					"numoutlets" : 3,
					"outlettype" : [ "", "", "" ],
					"patching_rect" : [ 1144.625, 540.0, 63.0, 21.0 ],
					"text" : "ml.kdtree"
				}

			}
, 			{
				"box" : 				{
					"id" : "obj-55",
					"maxclass" : "number",
					"numinlets" : 1,
					"numoutlets" : 2,
					"outlettype" : [ "", "bang" ],
					"parameter_enable" : 0,
					"patching_rect" : [ 675.625, 430.4375, 50.0, 21.0 ]
				}

			}
, 			{
				"box" : 				{
					"id" : "obj-56",
					"maxclass" : "newobj",
					"numinlets" : 2,
					"numoutlets" : 1,
					"outlettype" : [ "" ],
					"patching_rect" : [ 648.625, 508.4375, 33.0, 21.0 ],
					"text" : "gate"
				}

			}
, 			{
				"box" : 				{
					"id" : "obj-27",
					"maxclass" : "newobj",
					"numinlets" : 1,
					"numoutlets" : 1,
					"outlettype" : [ "int" ],
					"patching_rect" : [ 872.125, 532.4375, 27.0, 21.0 ],
					"text" : "t 1"
				}

			}
, 			{
				"box" : 				{
					"id" : "obj-57",
					"maxclass" : "newobj",
					"numinlets" : 1,
					"numoutlets" : 1,
					"outlettype" : [ "int" ],
					"patching_rect" : [ 934.625, 532.4375, 27.0, 21.0 ],
					"text" : "t 0"
				}

			}
, 			{
				"box" : 				{
					"id" : "obj-25",
					"maxclass" : "newobj",
					"numinlets" : 2,
					"numoutlets" : 2,
					"outlettype" : [ "bang", "" ],
					"patching_rect" : [ 872.125, 497.4375, 39.0, 21.0 ],
					"text" : "sel 1"
				}

			}
, 			{
				"box" : 				{
					"id" : "obj-58",
					"maxclass" : "newobj",
					"numinlets" : 2,
					"numoutlets" : 2,
					"outlettype" : [ "bang", "" ],
					"patching_rect" : [ 934.625, 497.4375, 45.0, 21.0 ],
					"text" : "sel 10"
				}

			}
, 			{
				"box" : 				{
					"id" : "obj-60",
					"maxclass" : "newobj",
					"numinlets" : 2,
					"numoutlets" : 2,
					"outlettype" : [ "bang", "" ],
					"patching_rect" : [ 970.625, 379.4375, 39.0, 21.0 ],
					"text" : "sel 0"
				}

			}
, 			{
				"box" : 				{
					"id" : "obj-61",
					"maxclass" : "newobj",
					"numinlets" : 5,
					"numoutlets" : 4,
					"outlettype" : [ "int", "", "", "int" ],
					"patching_rect" : [ 934.625, 451.4375, 61.0, 21.0 ],
					"text" : "counter"
				}

			}
, 			{
				"box" : 				{
					"id" : "obj-62",
					"maxclass" : "toggle",
					"numinlets" : 1,
					"numoutlets" : 1,
					"outlettype" : [ "int" ],
					"parameter_enable" : 0,
					"patching_rect" : [ 917.625, 358.4375, 24.0, 24.0 ],
					"presentation" : 1,
					"presentation_rect" : [ 375.625, 109.5, 24.0, 24.0 ]
				}

			}
, 			{
				"box" : 				{
					"id" : "obj-65",
					"maxclass" : "newobj",
					"numinlets" : 2,
					"numoutlets" : 1,
					"outlettype" : [ "" ],
					"patching_rect" : [ 741.625, 400.4375, 166.0, 21.0 ],
					"text" : "if $f1 > $f2 then 1 else 0"
				}

			}
, 			{
				"box" : 				{
					"id" : "obj-5",
					"maxclass" : "newobj",
					"numinlets" : 2,
					"numoutlets" : 1,
					"outlettype" : [ "bang" ],
					"patching_rect" : [ 917.625, 400.4375, 39.0, 21.0 ],
					"text" : "metro"
				}

			}
, 			{
				"box" : 				{
					"id" : "obj-66",
					"maxclass" : "message",
					"numinlets" : 2,
					"numoutlets" : 1,
					"outlettype" : [ "" ],
					"patching_rect" : [ 723.533333333333303, 229.699714303016663, 120.0, 21.0 ],
					"presentation" : 1,
					"presentation_rect" : [ 330.299384162326646, 180.0, 120.0, 21.0 ],
					"text" : "-94.951973"
				}

			}
, 			{
				"box" : 				{
					"id" : "obj-67",
					"maxclass" : "newobj",
					"numinlets" : 1,
					"numoutlets" : 1,
					"outlettype" : [ "" ],
					"patching_rect" : [ 741.625, 354.4375, 39.0, 21.0 ],
					"text" : "atodb"
				}

			}
, 			{
				"box" : 				{
					"id" : "obj-68",
					"maxclass" : "newobj",
					"numinlets" : 2,
					"numoutlets" : 1,
					"outlettype" : [ "float" ],
					"patching_rect" : [ 741.625, 331.4375, 81.0, 21.0 ],
					"text" : "snapshot~ 60"
				}

			}
, 			{
				"box" : 				{
					"fontname" : "Arial",
					"fontsize" : 12.0,
					"id" : "obj-11",
					"maxclass" : "newobj",
					"numinlets" : 2,
					"numoutlets" : 1,
					"outlettype" : [ "" ],
					"patching_rect" : [ 640.625, 463.4375, 140.0, 22.0 ],
					"text" : "zsa.easy_mfcc~ 1024 4"
				}

			}
, 			{
				"box" : 				{
					"id" : "obj-14",
					"maxclass" : "number",
					"numinlets" : 1,
					"numoutlets" : 2,
					"outlettype" : [ "", "bang" ],
					"parameter_enable" : 0,
					"patching_rect" : [ 171.524781465530396, 156.0, 50.0, 21.0 ],
					"presentation" : 1,
					"presentation_rect" : [ 30.553432703018188, 94.0, 50.0, 21.0 ]
				}

			}
, 			{
				"box" : 				{
					"id" : "obj-6",
					"maxclass" : "button",
					"numinlets" : 1,
					"numoutlets" : 1,
					"outlettype" : [ "bang" ],
					"parameter_enable" : 0,
					"patching_rect" : [ 34.524780999999997, 245.199714303016663, 24.0, 24.0 ],
					"presentation" : 1,
					"presentation_rect" : [ 146.529632285237312, 63.409660696983337, 24.0, 24.0 ]
				}

			}
, 			{
				"box" : 				{
					"fontsize" : 5.0,
					"id" : "obj-50",
					"maxclass" : "newobj",
					"numinlets" : 1,
					"numoutlets" : 3,
					"outlettype" : [ "", "", "" ],
					"patching_rect" : [ 120.033333333333303, 114.990298628807068, 41.0, 14.0 ],
					"restore" : [ -36.399999999999999 ],
					"saved_object_attributes" : 					{
						"parameter_enable" : 0,
						"parameter_mappable" : 0
					}
,
					"text" : "pattr thresh",
					"varname" : "thresh"
				}

			}
, 			{
				"box" : 				{
					"id" : "obj-4",
					"linecount" : 2,
					"maxclass" : "comment",
					"numinlets" : 1,
					"numoutlets" : 0,
					"patching_rect" : [ 26.98494664033251, 25.590339303016663, 51.952399164438248, 32.0 ],
					"presentation" : 1,
					"presentation_rect" : [ 132.553432703018188, 11.193080544471741, 82.952399164438248, 19.0 ],
					"text" : "inputNumber"
				}

			}
, 			{
				"box" : 				{
					"comment" : "presetNumber",
					"id" : "obj-118",
					"index" : 3,
					"maxclass" : "outlet",
					"numinlets" : 1,
					"numoutlets" : 0,
					"patching_rect" : [ 109.256848395864154, 647.186594724655151, 30.0, 30.0 ]
				}

			}
, 			{
				"box" : 				{
					"comment" : "bang",
					"id" : "obj-117",
					"index" : 1,
					"maxclass" : "outlet",
					"numinlets" : 1,
					"numoutlets" : 0,
					"patching_rect" : [ 18.0, 647.186594724655151, 30.0, 30.0 ]
				}

			}
, 			{
				"box" : 				{
					"id" : "obj-13",
					"maxclass" : "meter~",
					"numinlets" : 1,
					"numoutlets" : 1,
					"outlettype" : [ "float" ],
					"patching_rect" : [ 109.256848395864154, 182.0, 80.0, 13.0 ],
					"presentation" : 1,
					"presentation_rect" : [ 30.553432703018188, 66.829015612602234, 109.204201550285006, 17.161290168762207 ]
				}

			}
, 			{
				"box" : 				{
					"id" : "obj-7",
					"maxclass" : "comment",
					"numinlets" : 1,
					"numoutlets" : 0,
					"patching_rect" : [ 374.256848395864154, 66.0, 51.952399164438248, 19.0 ],
					"presentation" : 1,
					"presentation_rect" : [ 87.805235088864947, 41.01088011264801, 51.952399164438248, 19.0 ],
					"text" : "thresh"
				}

			}
, 			{
				"box" : 				{
					"format" : 6,
					"id" : "obj-21",
					"maxclass" : "flonum",
					"numinlets" : 1,
					"numoutlets" : 2,
					"outlettype" : [ "", "bang" ],
					"parameter_enable" : 0,
					"patching_rect" : [ 109.256848395864154, 156.0, 50.0, 21.0 ],
					"presentation" : 1,
					"presentation_rect" : [ 30.553432703018188, 41.01088011264801, 50.0, 21.0 ],
					"varname" : "number[1]"
				}

			}
, 			{
				"box" : 				{
					"id" : "obj-3",
					"items" : [ "off", ",", "one", ",", "two", ",", "three", ",", "four", ",", "five", ",", "six", ",", "seven", ",", "eight", ",", "nine", ",", "ten" ],
					"maxclass" : "umenu",
					"numinlets" : 1,
					"numoutlets" : 3,
					"outlettype" : [ "int", "", "" ],
					"parameter_enable" : 0,
					"patching_rect" : [ 90.533333333333303, 29.902757406234741, 100.0, 21.0 ],
					"presentation" : 1,
					"presentation_rect" : [ 30.553432703018188, 11.193080544471741, 100.0, 21.0 ],
					"varname" : "umenu[2]"
				}

			}
 ],
		"lines" : [ 			{
				"patchline" : 				{
					"destination" : [ "obj-12", 0 ],
					"midpoints" : [ 885.125, 265.0, 906.0, 265.0 ],
					"source" : [ "obj-10", 0 ]
				}

			}
, 			{
				"patchline" : 				{
					"destination" : [ "obj-56", 1 ],
					"midpoints" : [ 650.125, 502.4375, 672.125, 502.4375 ],
					"source" : [ "obj-11", 0 ]
				}

			}
, 			{
				"patchline" : 				{
					"destination" : [ "obj-65", 1 ],
					"source" : [ "obj-12", 0 ]
				}

			}
, 			{
				"patchline" : 				{
					"destination" : [ "obj-87", 2 ],
					"midpoints" : [ 181.024781465530396, 177.0, 189.0, 177.0, 189.0, 195.0, 136.02478099999999, 195.0 ],
					"source" : [ "obj-14", 0 ]
				}

			}
, 			{
				"patchline" : 				{
					"destination" : [ "obj-9", 0 ],
					"source" : [ "obj-15", 0 ]
				}

			}
, 			{
				"patchline" : 				{
					"destination" : [ "obj-117", 0 ],
					"source" : [ "obj-16", 0 ]
				}

			}
, 			{
				"patchline" : 				{
					"destination" : [ "obj-87", 1 ],
					"midpoints" : [ 118.756848395864154, 177.0, 90.02478099999999, 177.0 ],
					"source" : [ "obj-21", 0 ]
				}

			}
, 			{
				"patchline" : 				{
					"destination" : [ "obj-51", 0 ],
					"source" : [ "obj-23", 0 ]
				}

			}
, 			{
				"patchline" : 				{
					"destination" : [ "obj-39", 1 ],
					"source" : [ "obj-24", 0 ]
				}

			}
, 			{
				"patchline" : 				{
					"destination" : [ "obj-27", 0 ],
					"midpoints" : [ 881.625, 520.4375, 881.625, 520.4375 ],
					"source" : [ "obj-25", 0 ]
				}

			}
, 			{
				"patchline" : 				{
					"destination" : [ "obj-56", 0 ],
					"midpoints" : [ 881.625, 556.4375, 691.625, 556.4375, 691.625, 502.4375, 658.125, 502.4375 ],
					"source" : [ "obj-27", 0 ]
				}

			}
, 			{
				"patchline" : 				{
					"destination" : [ "obj-41", 0 ],
					"midpoints" : [ 1235.125, 438.0, 1329.125, 438.0 ],
					"source" : [ "obj-28", 0 ]
				}

			}
, 			{
				"patchline" : 				{
					"destination" : [ "obj-87", 0 ],
					"midpoints" : [ 100.033333333333303, 84.0, 105.0, 84.0, 105.0, 141.0, 44.024780999999997, 141.0 ],
					"source" : [ "obj-3", 0 ]
				}

			}
, 			{
				"patchline" : 				{
					"destination" : [ "obj-54", 0 ],
					"source" : [ "obj-39", 0 ]
				}

			}
, 			{
				"patchline" : 				{
					"destination" : [ "obj-41", 0 ],
					"midpoints" : [ 1313.215909242630005, 489.0, 1329.125, 489.0 ],
					"order" : 1,
					"source" : [ "obj-40", 0 ]
				}

			}
, 			{
				"patchline" : 				{
					"destination" : [ "obj-42", 0 ],
					"midpoints" : [ 1313.215909242630005, 489.0, 1387.625, 489.0 ],
					"order" : 0,
					"source" : [ "obj-40", 0 ]
				}

			}
, 			{
				"patchline" : 				{
					"destination" : [ "obj-39", 0 ],
					"midpoints" : [ 1329.125, 526.4375, 1219.625, 526.4375, 1219.625, 484.4375, 1141.625, 484.4375, 1141.625, 478.4375, 1105.125, 478.4375 ],
					"source" : [ "obj-41", 0 ]
				}

			}
, 			{
				"patchline" : 				{
					"destination" : [ "obj-44", 0 ],
					"midpoints" : [ 1387.625, 535.4375, 1300.625, 535.4375, 1300.625, 454.4375, 1265.125, 454.4375 ],
					"source" : [ "obj-42", 0 ]
				}

			}
, 			{
				"patchline" : 				{
					"destination" : [ "obj-8", 0 ],
					"source" : [ "obj-43", 0 ]
				}

			}
, 			{
				"patchline" : 				{
					"destination" : [ "obj-54", 0 ],
					"source" : [ "obj-44", 0 ]
				}

			}
, 			{
				"patchline" : 				{
					"destination" : [ "obj-23", 0 ],
					"source" : [ "obj-45", 0 ]
				}

			}
, 			{
				"patchline" : 				{
					"destination" : [ "obj-43", 0 ],
					"source" : [ "obj-46", 0 ]
				}

			}
, 			{
				"patchline" : 				{
					"destination" : [ "obj-61", 0 ],
					"midpoints" : [ 927.125, 436.4375, 944.125, 436.4375 ],
					"source" : [ "obj-5", 0 ]
				}

			}
, 			{
				"patchline" : 				{
					"destination" : [ "obj-21", 0 ],
					"midpoints" : [ 140.533333333333303, 141.0, 118.756848395864154, 141.0 ],
					"source" : [ "obj-50", 1 ]
				}

			}
, 			{
				"patchline" : 				{
					"destination" : [ "obj-24", 0 ],
					"source" : [ "obj-51", 0 ]
				}

			}
, 			{
				"patchline" : 				{
					"destination" : [ "obj-54", 0 ],
					"midpoints" : [ 1374.215909242630005, 456.0, 1242.0, 456.0, 1242.0, 498.0, 1154.125, 498.0 ],
					"source" : [ "obj-52", 0 ]
				}

			}
, 			{
				"patchline" : 				{
					"destination" : [ "obj-23", 1 ],
					"source" : [ "obj-53", 0 ]
				}

			}
, 			{
				"patchline" : 				{
					"destination" : [ "obj-16", 0 ],
					"order" : 1,
					"source" : [ "obj-54", 1 ]
				}

			}
, 			{
				"patchline" : 				{
					"destination" : [ "obj-74", 0 ],
					"midpoints" : [ 1176.125, 573.0, 1090.988636493682861, 573.0 ],
					"order" : 0,
					"source" : [ "obj-54", 1 ]
				}

			}
, 			{
				"patchline" : 				{
					"destination" : [ "obj-11", 1 ],
					"midpoints" : [ 685.125, 454.4375, 771.125, 454.4375 ],
					"source" : [ "obj-55", 0 ]
				}

			}
, 			{
				"patchline" : 				{
					"destination" : [ "obj-39", 2 ],
					"midpoints" : [ 658.125, 541.4375, 856.625, 541.4375, 856.625, 484.4375, 1006.625, 484.4375, 1006.625, 463.4375, 1131.125, 463.4375 ],
					"order" : 1,
					"source" : [ "obj-56", 0 ]
				}

			}
, 			{
				"patchline" : 				{
					"destination" : [ "obj-45", 0 ],
					"midpoints" : [ 658.125, 541.4375, 856.625, 541.4375, 856.625, 484.4375, 1006.625, 484.4375, 1006.625, 412.4375, 1099.625, 412.4375, 1099.625, 340.4375, 1123.125, 340.4375 ],
					"order" : 2,
					"source" : [ "obj-56", 0 ]
				}

			}
, 			{
				"patchline" : 				{
					"destination" : [ "obj-51", 1 ],
					"midpoints" : [ 658.125, 541.4375, 856.625, 541.4375, 856.625, 484.4375, 1006.625, 484.4375, 1006.625, 412.4375, 1129.625, 412.4375, 1129.625, 406.4375, 1186.125, 406.4375 ],
					"order" : 0,
					"source" : [ "obj-56", 0 ]
				}

			}
, 			{
				"patchline" : 				{
					"destination" : [ "obj-56", 0 ],
					"midpoints" : [ 944.125, 565.4375, 691.625, 565.4375, 691.625, 502.4375, 658.125, 502.4375 ],
					"source" : [ "obj-57", 0 ]
				}

			}
, 			{
				"patchline" : 				{
					"destination" : [ "obj-57", 0 ],
					"midpoints" : [ 944.125, 520.4375, 944.125, 520.4375 ],
					"source" : [ "obj-58", 0 ]
				}

			}
, 			{
				"patchline" : 				{
					"destination" : [ "obj-61", 2 ],
					"midpoints" : [ 980.125, 436.4375, 965.125, 436.4375 ],
					"source" : [ "obj-60", 0 ]
				}

			}
, 			{
				"patchline" : 				{
					"destination" : [ "obj-25", 0 ],
					"midpoints" : [ 944.125, 484.4375, 881.625, 484.4375 ],
					"order" : 1,
					"source" : [ "obj-61", 0 ]
				}

			}
, 			{
				"patchline" : 				{
					"destination" : [ "obj-58", 0 ],
					"midpoints" : [ 944.125, 475.4375, 944.125, 475.4375 ],
					"order" : 0,
					"source" : [ "obj-61", 0 ]
				}

			}
, 			{
				"patchline" : 				{
					"destination" : [ "obj-5", 0 ],
					"midpoints" : [ 927.125, 385.4375, 927.125, 385.4375 ],
					"order" : 1,
					"source" : [ "obj-62", 0 ]
				}

			}
, 			{
				"patchline" : 				{
					"destination" : [ "obj-60", 0 ],
					"midpoints" : [ 927.125, 385.4375, 955.625, 385.4375, 955.625, 373.4375, 980.125, 373.4375 ],
					"order" : 0,
					"source" : [ "obj-62", 0 ]
				}

			}
, 			{
				"patchline" : 				{
					"destination" : [ "obj-62", 0 ],
					"midpoints" : [ 751.125, 433.4375, 874.625, 433.4375, 874.625, 421.4375, 913.625, 421.4375, 913.625, 355.4375, 927.125, 355.4375 ],
					"source" : [ "obj-65", 0 ]
				}

			}
, 			{
				"patchline" : 				{
					"destination" : [ "obj-65", 0 ],
					"midpoints" : [ 751.125, 376.4375, 751.125, 376.4375 ],
					"order" : 1,
					"source" : [ "obj-67", 0 ]
				}

			}
, 			{
				"patchline" : 				{
					"destination" : [ "obj-66", 1 ],
					"midpoints" : [ 751.125, 376.4375, 790.625, 376.4375, 790.625, 355.4375, 834.033333333333303, 355.4375 ],
					"order" : 0,
					"source" : [ "obj-67", 0 ]
				}

			}
, 			{
				"patchline" : 				{
					"destination" : [ "obj-67", 0 ],
					"midpoints" : [ 751.125, 355.4375, 751.125, 355.4375 ],
					"source" : [ "obj-68", 0 ]
				}

			}
, 			{
				"patchline" : 				{
					"destination" : [ "obj-55", 0 ],
					"midpoints" : [ 668.590902805328369, 417.0, 685.125, 417.0 ],
					"source" : [ "obj-73", 0 ]
				}

			}
, 			{
				"patchline" : 				{
					"destination" : [ "obj-46", 0 ],
					"source" : [ "obj-74", 0 ]
				}

			}
, 			{
				"patchline" : 				{
					"destination" : [ "obj-48", 1 ],
					"midpoints" : [ 1131.488636493682861, 630.0, 1332.5, 630.0 ],
					"source" : [ "obj-74", 1 ]
				}

			}
, 			{
				"patchline" : 				{
					"destination" : [ "obj-30", 0 ],
					"source" : [ "obj-8", 0 ]
				}

			}
, 			{
				"patchline" : 				{
					"destination" : [ "obj-21", 0 ],
					"midpoints" : [ 47.024781465530396, 141.0, 118.756848395864154, 141.0 ],
					"order" : 1,
					"source" : [ "obj-81", 0 ]
				}

			}
, 			{
				"patchline" : 				{
					"destination" : [ "obj-93", 0 ],
					"midpoints" : [ 47.024781465530396, 141.0, 317.756848395864154, 141.0 ],
					"order" : 0,
					"source" : [ "obj-81", 0 ]
				}

			}
, 			{
				"patchline" : 				{
					"destination" : [ "obj-117", 0 ],
					"midpoints" : [ 67.02478099999999, 231.0, 21.0, 231.0, 21.0, 633.0, 27.5, 633.0 ],
					"source" : [ "obj-87", 1 ]
				}

			}
, 			{
				"patchline" : 				{
					"destination" : [ "obj-118", 0 ],
					"midpoints" : [ 136.02478099999999, 633.0, 118.756848395864154, 633.0 ],
					"source" : [ "obj-87", 4 ]
				}

			}
, 			{
				"patchline" : 				{
					"destination" : [ "obj-13", 0 ],
					"midpoints" : [ 44.024780999999997, 219.0, 21.0, 219.0, 21.0, 177.0, 118.756848395864154, 177.0 ],
					"source" : [ "obj-87", 0 ]
				}

			}
, 			{
				"patchline" : 				{
					"destination" : [ "obj-2", 1 ],
					"order" : 0,
					"source" : [ "obj-87", 3 ]
				}

			}
, 			{
				"patchline" : 				{
					"destination" : [ "obj-29", 0 ],
					"midpoints" : [ 113.02478099999999, 633.0, 74.024781465530396, 633.0 ],
					"order" : 1,
					"source" : [ "obj-87", 3 ]
				}

			}
, 			{
				"patchline" : 				{
					"destination" : [ "obj-6", 0 ],
					"midpoints" : [ 90.02478099999999, 231.0, 44.024780999999997, 231.0 ],
					"source" : [ "obj-87", 2 ]
				}

			}
, 			{
				"patchline" : 				{
					"destination" : [ "obj-117", 0 ],
					"midpoints" : [ 303.024781000000019, 633.0, 27.5, 633.0 ],
					"source" : [ "obj-88", 1 ]
				}

			}
, 			{
				"patchline" : 				{
					"destination" : [ "obj-118", 0 ],
					"midpoints" : [ 372.024781000000019, 219.0, 351.0, 219.0, 351.0, 633.0, 118.756848395864154, 633.0 ],
					"source" : [ "obj-88", 4 ]
				}

			}
, 			{
				"patchline" : 				{
					"destination" : [ "obj-29", 0 ],
					"midpoints" : [ 349.024781000000019, 633.0, 74.024781465530396, 633.0 ],
					"source" : [ "obj-88", 3 ]
				}

			}
, 			{
				"patchline" : 				{
					"destination" : [ "obj-90", 0 ],
					"midpoints" : [ 280.024781000000019, 219.0, 267.0, 219.0, 267.0, 174.0, 311.024781000000075, 174.0 ],
					"source" : [ "obj-88", 0 ]
				}

			}
, 			{
				"patchline" : 				{
					"destination" : [ "obj-91", 0 ],
					"midpoints" : [ 326.024781000000019, 234.0, 373.5, 234.0 ],
					"source" : [ "obj-88", 2 ]
				}

			}
, 			{
				"patchline" : 				{
					"destination" : [ "obj-88", 0 ],
					"midpoints" : [ 218.033333333333303, 141.0, 280.024781000000019, 141.0 ],
					"source" : [ "obj-89", 0 ]
				}

			}
, 			{
				"patchline" : 				{
					"destination" : [ "obj-1", 0 ],
					"order" : 1,
					"source" : [ "obj-9", 0 ]
				}

			}
, 			{
				"patchline" : 				{
					"destination" : [ "obj-11", 0 ],
					"order" : 2,
					"source" : [ "obj-9", 0 ]
				}

			}
, 			{
				"patchline" : 				{
					"destination" : [ "obj-68", 0 ],
					"order" : 0,
					"source" : [ "obj-9", 0 ]
				}

			}
, 			{
				"patchline" : 				{
					"destination" : [ "obj-88", 2 ],
					"midpoints" : [ 401.024781465530396, 192.0, 372.024781000000019, 192.0 ],
					"source" : [ "obj-92", 0 ]
				}

			}
, 			{
				"patchline" : 				{
					"destination" : [ "obj-88", 1 ],
					"midpoints" : [ 317.756848395864154, 174.0, 297.0, 174.0, 297.0, 192.0, 326.024781000000019, 192.0 ],
					"source" : [ "obj-93", 0 ]
				}

			}
 ],
		"color" : [ 1.0, 0.0, 0.36078431372549, 1.0 ],
		"elementcolor" : [ 0.556862745098039, 0.556862745098039, 0.556862745098039, 1.0 ],
		"accentcolor" : [ 0.533333333333333, 0.392156862745098, 0.564705882352941, 1.0 ],
		"textcolor" : [ 1.0, 1.0, 1.0, 1.0 ],
		"patchlinecolor" : [ 0.43921568627451, 0.949019607843137, 1.0, 1.0 ],
		"bgcolor" : [ 0.368627450980392, 0.368627450980392, 0.368627450980392, 1.0 ],
		"editing_bgcolor" : [ 0.443137254901961, 0.443137254901961, 0.443137254901961, 1.0 ]
	}

}
